# FamiTracker text export 0.5.0

# Song information
TITLE           "sega tetris theme"
AUTHOR          "king candy"
COPYRIGHT       "1989 sega"

# Song comment
COMMENT ""

# Global settings
MACHINE         0
EXPANSION       0
VIBRATO         1
SPLIT           32
PLAYBACKRATE    0 16666
TUNING          0 0

# Macros
MACRO       0   0  -1  -1   0 : 0 8 5 5 1 0
MACRO       0   1  -1  -1   0 : 14 12 11 9 6 5 2
MACRO       4   0  -1  -1   0 : 2
MACRO       4   1  -1  -1   0 : 2 1

# DPCM samples
DPCMDEF   0   705 "A#.dmc"
DPCM : 37 C3 33 F8 3C 84 7B 7C 80 DF 7F 80 87 1F 81 F9 07 40 80 17 FC 87 FB 87 BF E0 AF BF 00 00 7C 80
DPCM : 7B C3 47 DC 7F 04 20 AE 05 80 FF FF 86 6F 00 1C FE 61 80 7F C0 05 50 25 BC FC FF 7F 5C FD DF 47
DPCM : 7D 00 05 5D 11 61 C6 09 80 3F 44 F8 07 F8 FF BF 00 AC 83 C0 BF 07 00 00 C0 03 38 28 EA FA FF FF
DPCM : AF FF FF 3F 04 FC 83 7A A8 82 BE 0A 00 F6 FF 03 D5 FC DD 3F 00 02 42 DC 43 20 28 02 00 E0 05 58
DPCM : 01 FC FF 3F F8 FF BF BF 82 9E 40 C8 3B C2 3D 33 D3 FC 7F 5D 05 FD FF 7F AA 02 00 EC 43 00 84 00
DPCM : 00 54 54 05 C0 FF 7F CC FC BF 3C 7B 20 AC 02 AA AA 2A EE 14 54 FE FF FF A1 FB FF 7F 88 02 20 BA
DPCM : 23 24 22 44 00 30 FC 22 C4 FD FF C3 DC 5F A5 1E 46 60 44 5C 98 41 D8 63 40 F5 FF FF 8A FC FF 7F
DPCM : 23 04 54 35 23 34 42 04 80 E2 EA 39 C4 FF 67 98 BE AF C6 BB 06 18 22 55 32 03 FC 47 00 FC FF FF
DPCM : CC DC FF 1F 05 00 84 99 11 66 06 04 40 55 7D 55 9C FF 57 A6 FB 3B C3 7B 23 C2 04 C3 33 30 BC 27
DPCM : 80 EE FF 7F AA BE FF AB 20 08 20 A8 1A 62 11 05 80 CA 33 33 CC FF CF CC FC 33 CC 7D 51 60 84 59
DPCM : 66 C0 F9 87 90 F7 FF BF 2A BE FF 3F 42 00 20 54 33 34 22 42 00 CA AB 23 6A FF 27 C6 EE 85 99 BF
DPCM : 21 18 46 E5 45 D1 F5 23 C0 FD FF 3F C3 D5 FF 5F 50 00 40 55 69 98 11 06 40 55 9E 61 E5 FF 69 58
DPCM : BD 58 CB 7B 03 C0 2A 33 43 C8 7B 23 A8 FA FF 37 66 FE FF 2B 06 04 80 E6 85 19 61 44 40 B5 3C C3
DPCM : BC FF CC CC 3C C3 DC 3F 04 A0 AA 1A 86 55 7E 86 50 F9 FF 1F E6 F9 FF 3B 00 03 20 CC 23 2C 23 04
DPCM : C2 C2 BD AA EA FA 4D E6 9D 61 BE 3F 02 84 E6 69 18 56 FE 41 84 FC FF C7 CC FC DF 57 03 40 40 55
DPCM : 43 34 43 04 84 55 9E 55 E5 F7 65 E6 69 C6 BD 8F 06 30 CC 2A 33 C4 FD 03 C2 FC FF 55 D5 DD FF 7B
DPCM : 20 00 21 1E 86 19 62 40 40 55 D7 D1 CC FB 33 B3 3C CC D3 3F 02 32 AC 2A 23 A2 F7 61 84 F7 FF A9
DPCM : EA BB FF AF 82 00 88 32 43 23 2C 30 20 CC AB AA CA FF 32 CC 2B E5 BD 67 08 98 99 61 86 91 F7 19
DPCM : 50 FF 7F 33 53 FD FF 37 04 20 C4 54 43 43 4C 28 40 E4 BD 21 9E FF 66 E4 69 E8 BD 67 08 54 B1 AA
DPCM : 32 C0 FB 23 C4 FD 7F 35 CC FD FD 17 43 80 A1 61 86 19 62 44 80 D5 79 19 55 FF 33 CC 3C CC B3 37
DPCM : 22 2C CC 2A 23 C2 FB 23 54 EF 7F 66 E6 F9 FB 1F 42 80 A1 2A 86 2A 34 42 C0 CC 3D 23 DC FF 32 C2
DPCM : AB C2 DD 1B 82 99 61 66 46 E0 F7 15 E4 FD BF 2A EA FC FB 37 42 20 34 4C 43 23 2C 42 C0 EA 8E 19
DPCM : 66
DPCMDEF   1   657 "B.dmc"
DPCM : 9D E1 19 BC 87 70 8F 0F F8 FD 03 1C 7F 00 F3 0F 00 C0 0B FE E3 FE F0 0F FE FC 03 00 E0 03 F6 86
DPCM : 8F DC 3F 02 10 7B 00 E8 FF 5F FC 02 E0 F0 C7 00 FF 80 03 B0 12 5E FD FF 9F AB FF 7B EA 03 08 7A
DPCM : 86 C0 8C 15 80 1F 22 FE 00 FF FF 07 C0 3D 00 FE 1E 00 00 C0 01 1C 14 75 FF FF FF F5 FF FF 23 E0
DPCM : 1F F4 50 03 7D 05 00 FD FF 82 AA BF FB 03 10 10 E2 8E 80 60 04 00 E0 02 AC 00 FF FF 87 FF FF FB
DPCM : 0B E6 01 21 77 C4 3D 33 55 FF 3F 57 C1 FF FF A7 2A 00 60 0F 01 80 00 00 54 54 01 F0 FF 9F AA FF
DPCM : CB D3 83 30 0B A8 AA 2A DC 13 54 FF FF 7F E8 FE FF 8F 08 80 E8 1D 88 08 44 00 30 FA 10 71 FF 7F
DPCM : CC FD 15 EB 21 82 11 71 91 41 D8 53 40 FE FF BF 28 FF FF 3F 44 40 D5 8C 50 44 04 80 E2 D6 1D F0
DPCM : FF 89 E9 FB 6A FC 19 60 44 98 29 03 FC 27 00 FE FF 5F CD FB FF 11 00 20 66 46 98 06 04 40 55 5F
DPCM : 19 E7 FF 99 B9 BF 33 DC 8F 10 13 C4 33 30 BC 13 20 FF FF AF AA FF BF 0A 02 80 60 2A 62 46 04 80
DPCM : AA AB 0A F3 FF CD CC 3F 23 EF 0D 81 11 56 65 C0 F9 47 E0 FD FF AF E2 F7 FF 43 04 00 50 CD 30 44
DPCM : 44 00 F2 F2 88 DA FF 45 EC 5D 58 FE 86 60 18 E5 85 91 F7 23 E0 FE FF 57 3C FD FF 41 01 00 55 A5
DPCM : A1 21 06 40 55 67 98 F9 BF 86 D9 8B B5 DC 0F 00 AB 2A 43 C8 FB 10 2A FF FF 8B EA FF BF 22 20 00
DPCM : 9A 8B 19 62 44 40 AE CE 30 EF DF CC CC 33 F2 FE 08 80 CC 1C 86 55 7E 22 54 FE FF 63 9E FF BF 21
DPCM : 10 80 30 0F 4C 23 04 A2 62 AF AA BA 3F 63 DE 19 E6 FF 08 10 E5 59 18 56 7F 10 22 FF FF D1 CC FF
DPCM : 7D 15 00 01 55 43 CC 44 04 44 55 67 55 F5 7D 66 9E 16 F7 7E 18 C0 B0 AA 32 C4 FD 81 30 FF 7F D5
DPCM : DC FB BF 0B 00 88 78 88 19 62 40 40 95 77 34 F3 7E 33 CB C3 CE FE 08 28 AC 32 23 A2 F7 12 E1 FD
DPCM : BF AA BE FB FF 0A 02 20 CA 0C 43 2C 30 20 F2 AA AA FA 4F C3 3C 53 DE 9F 21 60 99 61 86 D1 7D 06
DPCM : D8 FF 5F 55 D5 FF 7F 11 80 10 55 43 43 4C 08 50 74 5F 84 D7 7F 46 5E 62 F7 9E 21 90 A9 AA 32 C0
DPCM : FB 09 71 FF 5F C3 DC DF FF 28 00 86 86 86 19 62 84 40 75 5E 45 F5 3F C3 CC 23 CF DE 88 28 CC 2A
DPCM : 23 E2 FE 08 D5 FB AF 66 9E BF FF 08 01 86 2A 46 26 34 22 20 F3 CE 88 FB 2F 23 3C 0B F7 6E 08 56
DPCM : 21 66 42 B0 7D 01 39 FF AB 21 CE DB 3F 11 81 10 55
DPCMDEF   2   625 "C.dmc"
DPCM : D7 F0 14 CF 03 EE 79 80 FF 1F 70 F8 11 E4 1F 00 C0 05 FF B8 3F FE C1 9F 3F 00 80 0E B8 0F 1F BC
DPCM : 3F 01 88 3D 00 FC FF 87 6F 00 86 3F 06 FC 01 07 50 09 2F FF FF F7 F4 FF 47 3D 40 D0 13 11 19 27
DPCM : 00 3F 20 FE 80 FF FF 01 B8 03 E1 EF 00 00 00 0E 30 08 F3 FE FF FF FF FF 7F 04 FC A1 87 2A F8 2A
DPCM : 00 F8 FF 41 D5 DF FD 01 00 42 EE 08 00 23 00 00 17 50 01 FE FF C7 FF FF 7F C1 3C 10 78 07 EE 69
DPCM : A6 F9 FF 6E A0 FF FF 57 05 00 EC 01 80 10 00 80 B0 0A C0 FF 9F 99 FF E7 F6 40 64 01 99 55 E1 9E
DPCM : A0 FC FF FF F4 FE FF 47 04 40 BC 03 11 88 08 00 F1 45 C4 FE FF 98 FF 19 75 8C 40 22 2E 32 88 1E
DPCM : 03 F2 FF FF 45 FE FF 3F 22 90 AA 21 1A 88 00 10 5E EF 80 FF 37 B2 F7 35 DE 0D 30 30 2C 59 80 7F
DPCM : 02 F0 FF FF 66 FE FF 23 00 20 32 23 32 03 00 A8 EA AB 38 FF CF E2 FD 67 DC 1B 88 09 E1 19 84 77
DPCM : 02 74 FF FF 55 DF FF 0D 40 00 21 13 31 83 02 40 9D 99 91 FF 6F 66 7F 86 DE 1B 88 08 AB 32 60 FF
DPCM : 08 BC FF FF 15 DF FF 4F 08 00 A0 66 28 22 12 00 79 1E 51 FB 5F 62 F7 30 F3 0F 21 0C EB C4 E8 FA
DPCM : 08 DC FF FF 86 EB FF 0F 06 00 A4 49 31 03 03 A0 CA 0B 33 FF D7 C8 DE B0 7A 2F 00 56 65 46 E0 7D
DPCM : 08 D5 FF 7F C9 FC FF 17 81 00 30 17 33 22 42 20 97 67 E4 FD 9B 99 9E 61 F7 07 00 56 39 0C 2B 3F
DPCM : 03 32 FF FF C9 F3 FF 1F 80 00 44 1E A1 46 04 60 B1 57 65 DE 6F CC 3B 31 DF 4F 00 2C AF 30 2C FF
DPCM : 00 83 FF 7F 66 FA BF AF 01 00 A8 1A A2 19 08 88 2A 2F AB FA AF CC D3 E2 DE C7 00 46 66 55 88 FB
DPCM : 03 91 FF BF 66 7E FE 7F 10 00 C4 43 CC 90 80 80 2A 3F 9C B9 BF 59 79 98 DB 1F 80 46 99 89 C8 EE
DPCM : 23 C2 FB 7F 55 DF FD 7F 41 00 42 66 28 62 41 40 E4 55 55 F9 6F 61 97 D1 FB 33 04 32 13 33 0C EF
DPCM : 0B B0 FF 7F A6 EA FF 7F 08 00 A2 6A 28 62 42 80 C8 FB 10 EF DF 42 AF D0 FB 33 04 32 56 95 01 FE
DPCM : 47 C4 FE BF 86 DE EF 7F 84 80 D0 D0 30 03 23 02 CA BB 8C EA 7F 86 E6 61 67 2F 21 16 59 16 22 FE
DPCM : 47 A8 FE 3F CD 3C FF 7F 84 80 30 95 D0 84 06 02 96 77 22 EE 7F 46 5C 1A 7B 37 84 CC D0 CC 08 BE
DPCM : 2F C8 FB 7F C5 9C BF FF 81 40 28 A6 61 88 05 02 55
DPCMDEF   3   593 "C#.dmc"
DPCM : CF 70 83 F7 80 3B 1F F0 FF 01 C7 0F 90 3F 00 80 07 FF F8 1F 3F F8 FB 0B 00 70 C0 5E 7C 70 FF 04
DPCM : 80 3D 00 FC FF E3 0B C0 F8 63 C0 0F 38 40 25 BC FE FF 77 F5 FF 53 0F 10 74 03 91 B1 00 FC 80 FC
DPCM : 01 FF FF 01 F8 01 F8 3B 00 00 C0 00 83 A8 FB FF FF FF FF FF 04 7E A8 A3 82 BE 02 80 FF 1F 54 FD
DPCM : F7 07 00 40 F6 00 84 10 00 60 01 15 E0 FF 7F FC FF FF 07 3D 20 78 23 7E A6 69 FF EF 09 FA FF 7F
DPCM : 55 00 A0 07 00 10 00 80 A8 02 F0 FF 67 F9 7F 6E 0F 60 05 64 55 C5 9D A0 FC FF FF BC FF FF 44 00
DPCM : D0 1D 48 20 22 00 E0 47 C4 FE 7F E6 7F 62 0F 11 24 62 B1 20 7A 02 EC FF FF A1 FF FF 8F 08 A8 66
DPCM : A0 81 08 00 78 DD 21 FF 37 D4 F7 35 7E 05 44 8C 8C 09 F8 27 00 FF FF 6F EE FF 27 00 00 CB 88 4C
DPCM : 20 00 AA BE 8C FD 3F 8B FF 6E F8 1B 88 82 71 06 E1 4F 00 F7 FF 5F 7D FF 17 04 01 20 13 B1 88 00
DPCM : 50 67 15 F6 FF 66 F9 1B 76 2F 02 03 AB 32 30 7F 04 EF FF 7F F1 FD FF 20 00 80 9A 68 20 12 00 5E
DPCM : 47 D4 FE C7 F8 2E B2 DF 00 23 AC 8B C8 FB 08 DC FF FF E1 FA FF 43 00 80 1A 8D 0C 0C 80 CA 33 B2
DPCM : FF 35 AC 17 9D EE 07 40 65 16 82 F7 21 94 FF FF C9 FC FF 47 20 00 F4 42 23 22 02 6A 9D 91 F7 AF
DPCM : 99 9E 91 FB 13 00 65 8E B0 F2 0B A1 FC FF 33 F7 FF 1F 40 00 60 47 94 81 40 24 7B 55 76 BF 31 77
DPCM : 43 DF 4F 00 D4 53 0C CB 1F 22 F4 FF A7 99 FF BF 02 20 90 1A 92 89 00 A2 EA AC CA FF CA 5C 33 7B
DPCM : 1F 03 84 65 55 C8 FD 40 E4 FF AF E6 EE FF 07 00 10 8F B0 10 81 80 AA 3B 6A DE 6F 59 8E B9 FD 04
DPCM : 18 56 16 91 EE 23 C2 FF 5F D5 F7 FF 57 00 20 64 A2 81 05 01 98 57 55 F9 6F 98 67 F4 FE 44 20 B3
DPCM : B0 30 BA 2F A0 FF BF A6 EA FF 3F 02 00 A6 86 22 26 04 08 EF 23 CE FF 0C AF D0 DF 0D 81 8C 55 15
DPCM : E0 7F 20 FE FF 1A B9 FF 7F 04 81 50 4C 4C C4 40 A0 BA CB 28 FF 1B 99 63 6E 2F 11 85 55 19 C8 FD
DPCM : 14 EA FF D5 F4 FC FF 11 00 23 95 50 85 11 80 E5 6E C4 FD 67 E0 55 F8 DD 10 B2 B0 CC 00 FF 2B F0
DPCM : FF D7 D0 F9 FB 8F 08 A0 98 A2 81 05 02 99 9F 0A 55
DPCMDEF   4   561 "D.dmc"
DPCM : CF B8 E0 3D E0 E7 01 FF 0F 38 7E 40 FE 00 00 07 FF EC 8F 3F FC FE 00 00 0E EC C3 93 FD 13 00 3E
DPCM : 00 FC FF F3 06 10 FE 04 FC 80 03 54 E2 FA FF DF F5 FF D3 07 10 DC 00 26 27 80 0F C4 0F FC FF 07
DPCM : B0 03 F8 3D 00 00 20 C0 20 F2 FF FF FF FF FF 07 FC A1 87 82 BE 02 C0 FF 07 D5 7F 7F 00 00 F0 23
DPCM : 00 22 00 40 01 15 F0 FF 9F FF FF FF 90 0B C0 9B D8 CB D4 FE DF 0D FC FF BF 0A 00 F4 00 00 00 00
DPCM : 44 05 E0 FF 2F F3 7F B7 07 C8 00 AB AA D8 05 E5 FF FF EB FF FF 89 00 E0 0D 24 08 04 00 FC 08 FC
DPCM : FF 33 FF 8D 3A 22 44 70 91 10 3D 01 F9 FF 7F F2 FF FF 04 50 D5 40 03 09 00 D8 EE C0 FF 87 F5 BE
DPCM : F2 27 20 22 96 32 E0 2F 00 FF FF 37 F7 FF 05 00 A0 89 68 06 00 50 7D 19 FB 7F 99 7F 37 EE 23 50
DPCM : 10 2F 10 EF 04 F8 FF BF EA FF 2F 80 00 90 86 64 10 00 F2 AA B0 FF B7 EC 2F EC 3E 04 11 55 19 D8
DPCM : 8F E0 FD FF 1F FE FF 13 01 00 34 51 24 10 00 AF 03 DB FF 98 ED A2 F9 07 84 51 1E 92 F7 09 EC FF
DPCM : FF 38 FF 7F 08 00 D0 68 64 60 00 54 17 96 FF 1B D6 87 CE FB 00 A8 2A 03 BA 8F A0 FE FF 93 FE FF
DPCM : 23 10 00 B9 68 44 04 90 EB 8C FC DF 34 3B 23 FF 11 80 B2 62 54 7D 21 94 FF BF B9 FF 7F 00 01 40
DPCM : 0F CC 08 00 8B AF CA EE 37 76 1B FA 7E 02 60 A7 18 D9 1F 10 FA FF 4D F3 FF 57 00 80 D4 C0 12 01
DPCM : 44 E5 55 D5 7F 65 A7 C6 EF 63 80 C8 2A 23 F6 07 D0 FF 5F 75 F7 FF 03 00 C8 11 1A 12 00 54 DE 38
DPCM : BB DF B2 8E BC 7E 02 8C CA 24 D2 3D 06 FE FF AA FE FE BF 00 40 30 C3 C0 C0 00 F2 AA AA 7F 8D 3C
DPCM : 93 FF 19 40 96 91 11 DD 1B D0 FF DF 34 FD FF 13 00 30 35 0C 4C 08 40 F7 11 D7 BF D1 15 FA BB 01
DPCM : 64 AC CA 80 FB 41 EE FF 8D DC FF 1F 03 10 86 86 06 06 02 75 9E 51 FE 17 D3 23 B7 8F C0 30 2B 89
DPCM : D8 9F 50 FF AF 9A FB FF 23 00 A1 4A 98 50 24 C0 FC 44 FC 3F 11 CF F0 BB 01 96 91 65 80 FF 05 DE
DPCM : FF 8B 39 FF 7F 02 08 23 45 03 43 02 CC 67 45 55 55
DPCMDEF   5   113 "motherKick.dmc"
DPCM : FF FF FF FF FF FF FF B6 42 04 00 00 00 00 00 20 49 B5 AA AA 4A 24 01 51 DA B6 AA 6D F7 FF FF FF
DPCM : FF FF F6 76 DB AB 55 A5 44 10 20 00 00 04 08 90 28 51 AA 5A B5 6D 7B F7 EE DD B7 77 5B 5B B5 52
DPCM : 49 12 12 09 12 22 49 48 A5 2A 55 65 B5 B5 AD B6 6D DB B6 6D DB B6 B5 AD D6 AA 2A 55 4A A5 24 49
DPCM : 2A 09 95 A2 54 49 53 B5 44 6A D5 6A AD D6 44 00 AB
DPCMDEF   6   241 "motherSnare.dmc"
DPCM : FF B7 20 0B 00 00 00 00 C0 FF FF FF FF FF FF FF FF 00 00 00 00 00 00 C0 0B 00 00 80 FD FF FF FF
DPCM : FF FF FF FF FF 17 00 00 00 00 00 00 00 F0 FF FF FF FF FF 7E 51 ED 44 81 10 01 82 18 2B 42 53 81
DPCM : 6F D8 DB EB E7 BF EB 1F FB 95 24 48 00 02 00 E0 C5 C0 BF F8 FF FF BA 0E 7E C4 50 68 2A 56 02 6F
DPCM : 77 4E F8 45 95 20 56 50 63 3F F4 FF F0 9D F8 21 B2 20 8E 0D 18 CF 82 AF 8A E3 3F 78 FD 18 CE 02
DPCM : 87 58 E0 C4 47 E9 DF F1 53 3B 8A 97 38 08 A9 03 DE E2 F8 0F 9E EC 89 B2 07 38 E2 63 F1 E3 C3 7B
DPCM : 42 AF 28 8E 2A 8E 42 83 5A 1D FA B1 EB AB D6 62 DA A1 E2 D0 34 9C 85 8E AE C4 7A 72 1D A6 55 1C
DPCM : B9 52 3D 8B 9E 9D 4E 96 2A 0B E2 A8 A4 95 2D BB 72 AD F4 91 5A 8B 52 25 4E 9C 5A 79 6A D7 A4 8E
DPCM : 9C 74 B0 A2 B4 89 67 35 6D 2B 37 B6 45 A5 A9 C5 A4

# Instruments
INST2A03   0    -1  -1  -1  -1  -1 "Zombie Nation Bass"
KEYDPCM   0   1  10     0   0   0     0  -1
KEYDPCM   0   1  11     1   0   0     0  -1
KEYDPCM   0   2   0     2   0   0     0  -1
KEYDPCM   0   2   1     3   0   0     0  -1
KEYDPCM   0   2   2     2   1   0     0  -1
KEYDPCM   0   2   3     3   1   0     0  -1
KEYDPCM   0   2   4     2   2   0     0  -1
KEYDPCM   0   2   5     2   3   0     0  -1
KEYDPCM   0   2   6     3   3   0     0  -1
KEYDPCM   0   2   7     2   4   0     0  -1
KEYDPCM   0   2   8     3   4   0     0  -1
KEYDPCM   0   2   9     2   5   0     0  -1
KEYDPCM   0   2  10     3   5   0     0  -1
KEYDPCM   0   2  11     2   6   0     0  -1
KEYDPCM   0   3   0     2   7   0     0  -1
KEYDPCM   0   3   1     3   7   0     0  -1
KEYDPCM   0   3   2     2   8   0     0  -1
KEYDPCM   0   3   3     3   8   0     0  -1
KEYDPCM   0   3   4     4   8   0     0  -1
KEYDPCM   0   3   5     2   9   0     0  -1
KEYDPCM   0   3   6     3   9   0     0  -1
KEYDPCM   0   3   7     2  10   0     0  -1
KEYDPCM   0   3   8     3  10   0     0  -1
KEYDPCM   0   3   9     2  11   0     0  -1
KEYDPCM   0   3  10     3  11   0     0  -1
KEYDPCM   0   3  11     4  11   0     0  -1
KEYDPCM   0   4   0     2  12   0     0  -1
KEYDPCM   0   4   1     3  12   0     0  -1
KEYDPCM   0   4   2     4  12   0     0  -1
KEYDPCM   0   4   3     1  13   0     0  -1
KEYDPCM   0   4   4     2  13   0     0  -1
KEYDPCM   0   4   5     3  13   0     0  -1
KEYDPCM   0   4   6     4  13   0     0  -1
KEYDPCM   0   4   7     2  14   0     0  -1
KEYDPCM   0   4   8     3  14   0     0  -1
KEYDPCM   0   4   9     4  14   0     0  -1
KEYDPCM   0   4  10     0  15   0     0  -1
KEYDPCM   0   4  11     1  15   0     0  -1
KEYDPCM   0   5   0     2  15   0     0  -1
KEYDPCM   0   5   1     3  15   0     0  -1
KEYDPCM   0   5   2     4  15   0     0  -1
INST2A03   1     0  -1  -1  -1   0 "Instrument 1A"
INST2A03   2     1  -1  -1  -1   1 "Bell/DPCM"
KEYDPCM   2   3   0     5  14   0     0  -1
KEYDPCM   2   3   2     6  15   0     0  -1

# Tracks

TRACK  64  15 150 "New song"
COLUMNS : 1 1 1 1 1

ORDER 00 : 00 00 00 00 00

PATTERN 00
ROW 00 : ... .. . ... : ... .. . ... : ... .. . ... : C-# 01 . ... : C-4 00 . ...
ROW 01 : C-3 01 . ... : ... .. . ... : ... .. . ... : C-# 01 . ... : C-4 00 . ...
ROW 02 : C-4 01 . ... : ... .. . ... : ... .. . ... : 4-# 01 . ... : A#3 00 . ...
ROW 03 : C-5 01 . ... : ... .. . ... : ... .. . ... : C-# 01 . ... : A-3 00 . ...
ROW 04 : C-4 01 . ... : ... .. . ... : ... .. . ... : C-# 01 . ... : G-3 00 . ...
ROW 05 : ... .. . ... : ... .. . ... : ... .. . ... : C-# 01 . ... : ... .. . ...
ROW 06 : ... .. . ... : ... .. . ... : ... .. . ... : 4-# 01 . ... : ... .. . ...
ROW 07 : ... .. . ... : ... .. . ... : ... .. . ... : C-# 01 . ... : ... .. . ...
ROW 08 : C-5 01 . ... : ... .. . ... : ... .. . ... : C-# 01 . ... : F-3 00 . ...
ROW 09 : ... .. . ... : ... .. . ... : ... .. . ... : C-# 01 . ... : F-3 00 . ...
ROW 0A : C-4 01 . ... : ... .. . ... : ... .. . ... : 4-# 01 . ... : D#3 00 . ...
ROW 0B : ... .. . ... : ... .. . ... : ... .. . ... : C-# 01 . ... : D-3 00 . ...
ROW 0C : C-5 01 . ... : ... .. . ... : ... .. . ... : C-# 01 . ... : C-3 00 . ...
ROW 0D : ... .. . ... : ... .. . ... : ... .. . ... : C-# 01 . ... : ... .. . ...
ROW 0E : ... .. . ... : ... .. . ... : ... .. . ... : 4-# 01 . ... : ... .. . ...
ROW 0F : ... .. . ... : ... .. . ... : ... .. . ... : C-# 01 . ... : ... .. . ...
ROW 10 : ... .. . ... : ... .. . ... : ... .. . ... : C-# 01 . ... : C-4 00 . ...
ROW 11 : C-3 01 . ... : ... .. . ... : ... .. . ... : C-# 01 . ... : C-4 00 . ...
ROW 12 : C-4 01 . ... : ... .. . ... : ... .. . ... : 4-# 01 . ... : A#3 00 . ...
ROW 13 : C-5 01 . ... : ... .. . ... : ... .. . ... : C-# 01 . ... : A-3 00 . ...
ROW 14 : C-4 01 . ... : ... .. . ... : ... .. . ... : C-# 01 . ... : G-3 00 . ...
ROW 15 : ... .. . ... : ... .. . ... : ... .. . ... : C-# 01 . ... : ... .. . ...
ROW 16 : ... .. . ... : ... .. . ... : ... .. . ... : 4-# 01 . ... : ... .. . ...
ROW 17 : ... .. . ... : ... .. . ... : ... .. . ... : C-# 01 . ... : ... .. . ...
ROW 18 : C-5 01 . ... : ... .. . ... : ... .. . ... : C-# 01 . ... : F-3 00 . ...
ROW 19 : ... .. . ... : ... .. . ... : ... .. . ... : C-# 01 . ... : F-3 00 . ...
ROW 1A : C-4 01 . ... : ... .. . ... : ... .. . ... : 4-# 01 . ... : D#3 00 . ...
ROW 1B : ... .. . ... : ... .. . ... : ... .. . ... : C-# 01 . ... : D-3 00 . ...
ROW 1C : C-5 01 . ... : ... .. . ... : ... .. . ... : C-# 01 . ... : C-3 00 . ...
ROW 1D : ... .. . ... : ... .. . ... : ... .. . ... : C-# 01 . ... : ... .. . ...
ROW 1E : ... .. . ... : ... .. . ... : ... .. . ... : 4-# 01 . ... : ... .. . ...
ROW 1F : ... .. . ... : ... .. . ... : ... .. . ... : C-# 01 . ... : ... .. . ...
ROW 20 : ... .. . ... : ... .. . ... : ... .. . ... : C-# 01 . ... : C-3 00 . ...
ROW 21 : D#4 02 . ... : ... .. . ... : ... .. . ... : C-# 01 . ... : ... .. . ...
ROW 22 : F-4 02 . ... : ... .. . ... : ... .. . ... : 4-# 01 . ... : ... .. . ...
ROW 23 : G-4 02 . ... : ... .. . ... : ... .. . ... : C-# 01 . ... : C-3 00 . ...
ROW 24 : ... .. . ... : ... .. . ... : ... .. . ... : C-# 01 . ... : ... .. . ...
ROW 25 : A#4 02 . ... : ... .. . ... : ... .. . ... : C-# 01 . ... : ... .. . ...
ROW 26 : ... .. . ... : ... .. . ... : ... .. . ... : 4-# 01 . ... : C-3 00 . ...
ROW 27 : A-4 02 . ... : ... .. . ... : ... .. . ... : C-# 01 . ... : ... .. . ...
ROW 28 : ... .. . ... : ... .. . ... : ... .. . ... : C-# 01 . ... : F-3 00 . ...
ROW 29 : ... .. . ... : ... .. . ... : ... .. . ... : C-# 01 . ... : ... .. . ...
ROW 2A : C-5 02 . ... : ... .. . ... : ... .. . ... : 4-# 01 . ... : ... .. . ...
ROW 2B : C-5 02 . ... : ... .. . ... : ... .. . ... : C-# 01 . ... : F-3 00 . ...
ROW 2C : ... .. . ... : ... .. . ... : ... .. . ... : C-# 01 . ... : ... .. . ...
ROW 2D : A-4 02 . ... : ... .. . ... : ... .. . ... : C-# 01 . ... : ... .. . ...
ROW 2E : ... .. . ... : ... .. . ... : ... .. . ... : 4-# 01 . ... : F-3 00 . ...
ROW 2F : G-4 02 . ... : ... .. . ... : ... .. . ... : C-# 01 . ... : ... .. . ...
ROW 30 : ... .. . ... : ... .. . ... : ... .. . ... : C-# 01 . ... : C-3 00 . ...
ROW 31 : ... .. . ... : ... .. . ... : ... .. . ... : C-# 01 . ... : ... .. . ...
ROW 32 : A#4 02 . ... : ... .. . ... : ... .. . ... : 4-# 01 . ... : ... .. . ...
ROW 33 : A#4 02 . ... : ... .. . ... : ... .. . ... : C-# 01 . ... : C-3 00 . ...
ROW 34 : ... .. . ... : ... .. . ... : ... .. . ... : C-# 01 . ... : ... .. . ...
ROW 35 : G-4 02 . ... : ... .. . ... : ... .. . ... : C-# 01 . ... : ... .. . ...
ROW 36 : ... .. . ... : ... .. . ... : ... .. . ... : 4-# 01 . ... : C-3 00 . ...
ROW 37 : F-4 02 . ... : ... .. . ... : ... .. . ... : C-# 01 . ... : ... .. . ...
ROW 38 : ... .. . ... : ... .. . ... : ... .. . ... : C-# 01 . ... : F-3 00 . ...
ROW 39 : ... .. . ... : ... .. . ... : ... .. . ... : C-# 01 . ... : ... .. . ...
ROW 3A : D#4 02 . ... : ... .. . ... : ... .. . ... : 4-# 01 . ... : ... .. . ...
ROW 3B : G-4 02 . ... : ... .. . ... : ... .. . ... : C-# 01 . ... : G-3 00 . ...
ROW 3C : === .. . ... : ... .. . ... : ... .. . ... : C-# 01 . ... : ... .. . ...
ROW 3D : ... .. . ... : ... .. . ... : ... .. . ... : C-# 01 . ... : F-3 00 . ...
ROW 3E : ... .. . ... : ... .. . ... : ... .. . ... : 4-# 01 . ... : D#3 00 . ...
ROW 3F : ... .. . ... : ... .. . ... : ... .. . ... : C-# 01 . ... : D-3 00 . ...

# End of export
